<svg width="49" height="48" viewBox="0 0 49 48" fill="none" xmlns="http://www.w3.org/2000/svg">
<rect width="48" height="48" transform="translate(0.143066)" fill="#0077B2"/>
<path d="M24.1431 11C21.5719 11 19.0585 11.7624 16.9207 13.1909C14.7828 14.6194 13.1166 16.6497 12.1326 19.0251C11.1487 21.4006 10.8913 24.0144 11.3929 26.5362C11.8945 29.0579 13.1326 31.3743 14.9507 33.1924C16.7688 35.0105 19.0851 36.2486 21.6069 36.7502C24.1287 37.2518 26.7425 36.9944 29.118 36.0104C31.4934 35.0265 33.5237 33.3603 34.9522 31.2224C36.3806 29.0846 37.1431 26.5712 37.1431 24C37.1394 20.5533 35.7686 17.2488 33.3314 14.8116C30.8943 12.3744 27.5898 11.0036 24.1431 11ZM25.1431 34.9538V27H28.1431C28.4083 27 28.6626 26.8946 28.8502 26.7071C29.0377 26.5196 29.1431 26.2652 29.1431 26C29.1431 25.7348 29.0377 25.4804 28.8502 25.2929C28.6626 25.1054 28.4083 25 28.1431 25H25.1431V22C25.1431 21.4696 25.3538 20.9609 25.7289 20.5858C26.1039 20.2107 26.6126 20 27.1431 20H29.1431C29.4083 20 29.6626 19.8946 29.8502 19.7071C30.0377 19.5196 30.1431 19.2652 30.1431 19C30.1431 18.7348 30.0377 18.4804 29.8502 18.2929C29.6626 18.1054 29.4083 18 29.1431 18H27.1431C26.0822 18 25.0648 18.4214 24.3146 19.1716C23.5645 19.9217 23.1431 20.9391 23.1431 22V25H20.1431C19.8779 25 19.6235 25.1054 19.436 25.2929C19.2484 25.4804 19.1431 25.7348 19.1431 26C19.1431 26.2652 19.2484 26.5196 19.436 26.7071C19.6235 26.8946 19.8779 27 20.1431 27H23.1431V34.9538C20.3241 34.6964 17.7128 33.3622 15.8524 31.2287C13.992 29.0952 13.0257 26.3266 13.1545 23.4988C13.2833 20.671 14.4973 18.0017 16.5439 16.0461C18.5906 14.0906 21.3123 12.9993 24.1431 12.9993C26.9738 12.9993 29.6956 14.0906 31.7422 16.0461C33.7889 18.0017 35.0029 20.671 35.1317 23.4988C35.2605 26.3266 34.2942 29.0952 32.4338 31.2287C30.5734 33.3622 27.9621 34.6964 25.1431 34.9538Z" fill="#CBD5E1"/>
</svg>
