<svg width="49" height="48" viewBox="0 0 49 48" fill="none" xmlns="http://www.w3.org/2000/svg">
<rect width="48" height="48" transform="translate(0.143066)" fill="#0077B2"/>
<path d="M39.0668 16.6175C38.9912 16.4348 38.863 16.2786 38.6986 16.1687C38.5342 16.0587 38.3408 16.0001 38.1431 16H34.3393C33.8075 15.0952 33.0506 14.3435 32.1423 13.8178C31.2339 13.2921 30.205 13.0104 29.1556 13C28.3737 12.9898 27.5977 13.136 26.8732 13.4301C26.1487 13.7242 25.4903 14.1602 24.9368 14.7125C24.3672 15.2715 23.915 15.9388 23.607 16.6751C23.2989 17.4114 23.1412 18.2019 23.1431 19V19.7613C18.1106 18.4338 13.9943 14.34 13.9506 14.2963C13.8164 14.1609 13.6464 14.0667 13.4605 14.0248C13.2746 13.9828 13.0805 13.9949 12.9013 14.0595C12.722 14.1241 12.5649 14.2386 12.4485 14.3895C12.3321 14.5404 12.2613 14.7214 12.2443 14.9113C11.7056 20.885 13.4406 24.8825 14.9943 27.1838C15.7519 28.3214 16.6735 29.3407 17.7293 30.2088C15.8256 32.4 12.8281 33.5513 12.7956 33.5638C12.6545 33.6166 12.5271 33.7007 12.4231 33.8097C12.319 33.9186 12.2409 34.0497 12.1946 34.1931C12.1484 34.3365 12.1351 34.4885 12.1558 34.6378C12.1765 34.787 12.2307 34.9296 12.3143 35.055C12.4081 35.195 12.7831 35.6863 13.6993 36.145C14.8318 36.7125 16.3281 37 18.1431 37C26.9768 37 34.3581 30.1975 35.1118 21.445L38.8506 17.7075C38.9904 17.5676 39.0855 17.3893 39.124 17.1953C39.1625 17.0013 39.1426 16.8002 39.0668 16.6175ZM33.4418 20.2938C33.2704 20.4656 33.1673 20.694 33.1518 20.9363C32.6431 28.8225 26.0531 35 18.1431 35C16.8231 35 15.8931 34.825 15.2406 34.615C16.6793 33.8338 18.6856 32.49 19.9756 30.555C20.0513 30.4412 20.1029 30.3131 20.1271 30.1786C20.1514 30.0442 20.1479 29.9061 20.1167 29.773C20.0855 29.64 20.0274 29.5147 19.946 29.405C19.8645 29.2952 19.7614 29.2034 19.6431 29.135C19.5843 29.1013 14.1543 25.8425 14.1431 17.135C16.1431 18.76 19.7993 21.2813 23.9768 21.9838C24.12 22.0079 24.2667 22.0006 24.4068 21.9623C24.5468 21.924 24.6769 21.8557 24.7878 21.7621C24.8988 21.6684 24.9881 21.5518 25.0494 21.4202C25.1108 21.2886 25.1427 21.1452 25.1431 21V19C25.1419 18.4666 25.2475 17.9383 25.4536 17.4463C25.6597 16.9543 25.9621 16.5084 26.3431 16.135C26.7083 15.7691 27.1431 15.4802 27.6219 15.2852C28.1007 15.0903 28.6137 14.9933 29.1306 15C30.7131 15.02 32.1918 15.985 32.8106 17.4013C32.8886 17.5793 33.0168 17.7308 33.1795 17.8371C33.3422 17.9435 33.5324 18.0001 33.7268 18H35.7268L33.4418 20.2938Z" fill="#CBD5E1"/>
</svg>
