<svg width="25" height="24" viewBox="0 0 25 24" fill="none" xmlns="http://www.w3.org/2000/svg">
<path d="M20.5835 5.25H16.8335V4.5C16.8335 3.90326 16.5964 3.33097 16.1745 2.90901C15.7525 2.48705 15.1802 2.25 14.5835 2.25H10.0835C9.48676 2.25 8.91446 2.48705 8.49251 2.90901C8.07055 3.33097 7.8335 3.90326 7.8335 4.5V5.25H4.0835C3.68567 5.25 3.30414 5.40804 3.02284 5.68934C2.74153 5.97064 2.5835 6.35218 2.5835 6.75V18.75C2.5835 19.1478 2.74153 19.5294 3.02284 19.8107C3.30414 20.092 3.68567 20.25 4.0835 20.25H20.5835C20.9813 20.25 21.3629 20.092 21.6442 19.8107C21.9255 19.5294 22.0835 19.1478 22.0835 18.75V6.75C22.0835 6.35218 21.9255 5.97064 21.6442 5.68934C21.3629 5.40804 20.9813 5.25 20.5835 5.25ZM9.3335 4.5C9.3335 4.30109 9.41251 4.11032 9.55317 3.96967C9.69382 3.82902 9.88458 3.75 10.0835 3.75H14.5835C14.7824 3.75 14.9732 3.82902 15.1138 3.96967C15.2545 4.11032 15.3335 4.30109 15.3335 4.5V5.25H9.3335V4.5ZM20.5835 6.75V13.5H4.0835V6.75H20.5835ZM20.5835 18.75H4.0835V15H20.5835V18.75Z" fill="#5299E0"/>
</svg>
