<svg width="25" height="24" viewBox="0 0 25 24" fill="none" xmlns="http://www.w3.org/2000/svg">
<path d="M20.8938 10.1887L13.3938 2.68875C13.1125 2.40766 12.7312 2.24976 12.3335 2.24976C11.9359 2.24976 11.5545 2.40766 11.2732 2.68875L3.77319 10.1887C3.63323 10.3277 3.52228 10.493 3.4468 10.6752C3.37131 10.8574 3.3328 11.0528 3.33351 11.25V20.25C3.33351 20.4489 3.41252 20.6397 3.55318 20.7803C3.69383 20.921 3.88459 21 4.08351 21H10.0835C10.2824 21 10.4732 20.921 10.6138 20.7803C10.7545 20.6397 10.8335 20.4489 10.8335 20.25V15H13.8335V20.25C13.8335 20.4489 13.9125 20.6397 14.0532 20.7803C14.1938 20.921 14.3846 21 14.5835 21H20.5835C20.7824 21 20.9732 20.921 21.1138 20.7803C21.2545 20.6397 21.3335 20.4489 21.3335 20.25V11.25C21.3342 11.0528 21.2957 10.8574 21.2202 10.6752C21.1447 10.493 21.0338 10.3277 20.8938 10.1887ZM19.8335 19.5H15.3335V14.25C15.3335 14.0511 15.2545 13.8603 15.1138 13.7197C14.9732 13.579 14.7824 13.5 14.5835 13.5H10.0835C9.88459 13.5 9.69383 13.579 9.55318 13.7197C9.41252 13.8603 9.33351 14.0511 9.33351 14.25V19.5H4.83351V11.25L12.3335 3.75L19.8335 11.25V19.5Z" fill="#5299E0"/>
</svg>
