<svg width="25" height="24" viewBox="0 0 25 24" fill="none" xmlns="http://www.w3.org/2000/svg">
<path d="M23.5835 12C23.5835 12.1989 23.5045 12.3897 23.3638 12.5303C23.2232 12.671 23.0324 12.75 22.8335 12.75H21.2707C21.092 13.7979 20.5488 14.749 19.7368 15.4352C18.9249 16.1214 17.8966 16.4985 16.8335 16.5H13.0835V18.75H15.3335C16.1291 18.75 16.8922 19.0661 17.4548 19.6287C18.0174 20.1913 18.3335 20.9544 18.3335 21.75C18.3335 21.9489 18.2545 22.1397 18.1138 22.2803C17.9732 22.421 17.7824 22.5 17.5835 22.5C17.3846 22.5 17.1938 22.421 17.0532 22.2803C16.9125 22.1397 16.8335 21.9489 16.8335 21.75C16.8335 21.3522 16.6755 20.9706 16.3942 20.6893C16.1129 20.408 15.7313 20.25 15.3335 20.25H13.0835V21.75C13.0835 21.9489 13.0045 22.1397 12.8638 22.2803C12.7232 22.421 12.5324 22.5 12.3335 22.5C12.1346 22.5 11.9438 22.421 11.8032 22.2803C11.6625 22.1397 11.5835 21.9489 11.5835 21.75V20.25H9.3335C8.93567 20.25 8.55414 20.408 8.27284 20.6893C7.99153 20.9706 7.8335 21.3522 7.8335 21.75C7.8335 21.9489 7.75448 22.1397 7.61383 22.2803C7.47317 22.421 7.28241 22.5 7.0835 22.5C6.88458 22.5 6.69382 22.421 6.55317 22.2803C6.41251 22.1397 6.3335 21.9489 6.3335 21.75C6.3335 20.9544 6.64957 20.1913 7.21218 19.6287C7.77478 19.0661 8.53785 18.75 9.3335 18.75H11.5835V16.5H7.8335C6.77044 16.4985 5.74211 16.1214 4.93017 15.4352C4.11824 14.749 3.57496 13.7979 3.39631 12.75H1.8335C1.63458 12.75 1.44382 12.671 1.30317 12.5303C1.16251 12.3897 1.0835 12.1989 1.0835 12C1.0835 11.8011 1.16251 11.6103 1.30317 11.4697C1.44382 11.329 1.63458 11.25 1.8335 11.25H4.0835C4.28241 11.25 4.47317 11.329 4.61383 11.4697C4.75448 11.6103 4.8335 11.8011 4.8335 12C4.8335 12.7956 5.14957 13.5587 5.71218 14.1213C6.27478 14.6839 7.03785 15 7.8335 15H16.8335C17.6291 15 18.3922 14.6839 18.9548 14.1213C19.5174 13.5587 19.8335 12.7956 19.8335 12C19.8335 11.8011 19.9125 11.6103 20.0532 11.4697C20.1938 11.329 20.3846 11.25 20.5835 11.25H22.8335C23.0324 11.25 23.2232 11.329 23.3638 11.4697C23.5045 11.6103 23.5835 11.8011 23.5835 12ZM6.70006 12.9825C6.55936 12.8202 6.45516 12.6296 6.39451 12.4235C6.33385 12.2175 6.31816 12.0008 6.3485 11.7881L7.63475 2.78812C7.68723 2.43127 7.86593 2.10506 8.1384 1.86871C8.41087 1.63236 8.75905 1.50154 9.11975 1.5H15.5472C15.9079 1.50154 16.2561 1.63236 16.5286 1.86871C16.8011 2.10506 16.9798 2.43127 17.0322 2.78812L18.3185 11.7881C18.3488 12.0009 18.3331 12.2176 18.2724 12.4238C18.2117 12.6299 18.1074 12.8206 17.9666 12.9829C17.8258 13.1452 17.6518 13.2754 17.4563 13.3646C17.2608 13.4538 17.0484 13.5 16.8335 13.5H7.8335C7.61852 13.5 7.40606 13.4538 7.2105 13.3645C7.01495 13.2752 6.84087 13.1449 6.70006 12.9825ZM7.8335 12H16.8335L15.5472 3H9.11881L7.8335 12Z" fill="#5299E0"/>
</svg>
